<?xml version="1.0" encoding="UTF-8"?><svg id="a" xmlns="http://www.w3.org/2000/svg" width="60.5701497" height="18.0050072" xmlns:xlink="http://www.w3.org/1999/xlink" viewBox="0 0 60.5701497 18.0050072"><defs><clipPath id="b"><rect x="-28.4574613" width="84.2966003" height="17.2031994" style="fill:none; stroke-width:0px;"/></clipPath></defs><g style="clip-path:url(#b);"><path d="M1.8797389,3.5045199v5.7648101L7.0056391,3.5045199h1.5391998l-3.7173996,4.2836499,4.0078011,5.8810301h-1.5103035l-3.4267998-4.9226303-2.0183983,2.27983v2.6428003H.6163378V3.5045199h1.263401Z" style="fill:#f7f3f0; stroke-width:0px;"/><path d="M13.4672404,7.4251499h-.5954018c-.7066994,0-1.2125015.2371902-1.5173988.7115602-.3050003.47437-.4574013,1.0599995-.4574013,1.7570696v3.7754202h-1.1907005v-7.4056501h1.031002l.1596985,1.1180401c.2130013-.3387799.4888992-.6098599.8277016-.8131499.3386993-.20329.8083-.3048902,1.4084969-.3048902h.3340034v1.1616001Z" style="fill:#f7f3f0; stroke-width:0px;"/><path d="M15.5583392,6.6483202c.5325012-.31464,1.1423988-.4718704,1.8297005-.4718704.6774979,0,1.2776985.1403303,1.800499.4210701.5228004.2807403.9342003.6873202,1.2342987,1.2197299.3001022.5324206.4598007,1.1568704.4792023,1.8732505,0,.1064301-.0097008.2758198-.0289993.5081997h-5.7503014v.1016998c.0192986.7259998.2420006,1.3067999.6679001,1.7425003.4259987.4356003.9826012.6533995,1.669899.6533995.5325012,0,.9850998-.1330996,1.3577003-.3992996.3726997-.2663002.6220016-.6365995.7479019-1.1107998h1.2052002c-.1452026.7550001-.5082016,1.3722-1.0890999,1.8513002-.5808029.4791994-1.2924004.7187996-2.1345024.7187996-.7357979,0-1.3796005-.1573-1.9313011-.4720001-.5517998-.3144999-.9800987-.7598-1.285099-1.3359003-.3050003-.5759993-.4573975-1.2365999-.4573975-1.9820795,0-.7550201.1475983-1.41819.4428978-1.9893298.2952003-.5711403.7090988-1.0140305,1.2415009-1.32867ZM18.9635401,7.7446299c-.4115028-.3484397-.9318008-.5227599-1.5610008-.5227599-.5615005,0-1.0552025.18398-1.4812012.5518303-.4258995.3678498-.6679001.8470502-.7259979,1.4375997h4.4723969c-.0579987-.6292696-.2927971-1.1181297-.7041969-1.46667Z" style="fill:#f7f3f0; stroke-width:0px;"/><path d="M25.60674,13.7563c-.7164001,0-1.3456001-.1597004-1.8877029-.4792004-.542099-.3195-.9631996-.7671995-1.263298-1.3431997-.3001022-.5759001-.4500999-1.2367001-.4500999-1.9820595,0-.7453709.152401-1.4037104.4574013-1.9748502.3048973-.5711403.7332001-1.0140305,1.285099-1.32867.5517006-.31464,1.1857986-.4718704,1.9021988-.4718704.8712006,0,1.5900002.2322702,2.1562996.69698.5662994.4646201.9221001,1.1035604,1.0673027,1.9167104h-1.2052002c-.1162033-.4742804-.3582001-.8518801-.7260017-1.1326203-.3679008-.2807398-.8131981-.4210696-1.3359985-.4210696-.7067032,0-1.280201.2516799-1.7207031.7550197-.4404984.5034404-.6606979,1.1568704-.6606979,1.9603705,0,.8131599.2201996,1.4738598.6606979,1.9820595.4405022.5082998,1.0139999.7623997,1.7207031.7623997.542099,0,.997097-.1403999,1.3649979-.4211998.3679008-.2805996.6051025-.6679001.7115021-1.1616001h1.1907005c-.1549034.8228006-.5179024,1.4690008-1.0890007,1.9386005-.5712013.4693995-1.2971992.7041998-2.1781998.7041998Z" style="fill:#f7f3f0; stroke-width:0px;"/><path d="M36.8893404,9.5452404v4.1239595h-1.1906052v-4.0513401c0-.7647696-.1742973-1.3480701-.5227966-1.7498198-.3484993-.4017501-.8470001-.60253-1.4956017-.60253-.687397,0-1.2318993.24192-1.6335983.7259498s-.6026001,1.1423702-.6026001,1.9748497v3.7028904h-1.1907997V3.5045199h1.1907997v3.9787602c.2420006-.38726.5639-.7018104.9655991-.94382.4017029-.2420201.8930016-.3630204,1.4738007-.3630204.9002991,0,1.6264.2709904,2.1782036.8131504.551796.5420799.8275986,1.3939595.8275986,2.5556502Z" style="fill:#f7f3f0; stroke-width:0px;"/><path d="M39.0965395,12.1299c.2419968,0,.4404984.0750999.5953979.2250996.1548996.1500006.232399.3461008.232399.5881004s-.0774994.4380999-.232399.5881004c-.1548996.1499996-.3534012.2250996-.5953979.2250996-.2420044,0-.4403992-.0750999-.5953979-.2250996-.1548996-.1500006-.2322006-.3461008-.2322006-.5881004s.077301-.4380999.2322006-.5881004c.1549988-.1499996.3533936-.2250996.5953979-.2250996Z" style="fill:#f7f3f0; stroke-width:0px;"/><path d="M44.2660418,13.7563c-.7164001,0-1.3456039-.1597004-1.8877029-.4792004s-.9632034-.7671995-1.263298-1.3431997c-.3001022-.5759001-.4501038-1.2367001-.4501038-1.9820595,0-.7453709.1524048-1.4037104.4574051-1.9748502.3048935-.5711403.7332001-1.0140305,1.2850952-1.32867.5517044-.31464,1.1857986-.4718704,1.9021988-.4718704.8712006,0,1.590004.2322702,2.1563034.69698.5662994.4646201.9220963,1.1035604,1.0672989,1.9167104h-1.2052002c-.1162033-.4742804-.3582001-.8518801-.7260971-1.1326203-.3678055-.2807398-.8131027-.4210696-1.3358994-.4210696-.7067032,0-1.2802048.2516799-1.7207031.7550197-.4404984.5034404-.6606979,1.1568704-.6606979,1.9603705,0,.8131599.2201996,1.4738598.6606979,1.9820595.4404984.5082998,1.0139999.7623997,1.7207031.7623997.542099,0,.9970932-.1403999,1.3649979-.4211998.367897-.2805996.6051025-.6679001.7115021-1.1616001h1.1906967c-.1548996.8228006-.5178986,1.4690008-1.0889969,1.9386005-.5712051.4693995-1.2972031.7041998-2.1781998.7041998Z" style="fill:#f7f3f0; stroke-width:0px;"/><path d="M48.9563418,11.9412003c-.3098068-.5712004-.4645996-1.2294006-.4645996-1.9748802,0-.7453604.1547928-1.4036102.4645996-1.9748402.3097992-.5711498.7429962-1.0164499,1.2995987-1.3359199.5565948-.3193698,1.1931992-.4791102,1.9095001-.4791102s1.3528976.1597404,1.9095001.4791102c.5567017.3194699.9897995.76477,1.2995987,1.3359199.3097992.5712299.4645996,1.2294798.4645996,1.9748402,0,.7454796-.1548004,1.4036798-.4645996,1.9748802-.3097992.5710993-.742897,1.0163994-1.2995987,1.3358994-.5566025.3195-1.1931992.4792004-1.9095001.4792004s-1.3529053-.1597004-1.9095001-.4792004c-.5566025-.3195-.9897995-.7648001-1.2995987-1.3358994ZM54.3145419,11.3748999c.2033005-.4162998.3048935-.8857994.3048935-1.4085798,0-.5227499-.101593-.9921999-.3048935-1.4085302-.2033005-.4162397-.4913025-.74054-.864006-.9728899-.3726959-.2322698-.8009949-.3484497-1.2850952-.3484497-.4840012,0-.9123993.1161799-1.2851028.3484497-.3726959.2323499-.6606979.5566502-.8639984.9728899-.2033005.4163303-.3049011.8857803-.3049011,1.4085302,0,.5227804.1016006.99228.3049011,1.4085798s.4913025.7406006.8639984.9729004c.3727036.2322998.8011017.3484993,1.2851028.3484993.4841003,0,.9123993-.1161995,1.2850952-.3484993.3727036-.2322998.6607056-.5566006.864006-.9729004Z" style="fill:#f7f3f0; stroke-width:0px;"/></g></svg>