<svg width="24" height="24" viewBox="0 0 24 24" fill="none" xmlns="http://www.w3.org/2000/svg">
<path d="M4.98292 7.19631C6.19132 7.19631 7.17092 6.21671 7.17092 5.00831C7.17092 3.79991 6.19132 2.82031 4.98292 2.82031C3.77452 2.82031 2.79492 3.79991 2.79492 5.00831C2.79492 6.21671 3.77452 7.19631 4.98292 7.19631Z" fill="#0D0D12"/>
<path d="M9.23692 8.85431V20.9933H13.0059V14.9903C13.0059 13.4063 13.3039 11.8723 15.2679 11.8723C17.2049 11.8723 17.2289 13.6833 17.2289 15.0903V20.9943H20.9999V14.3373C20.9999 11.0673 20.2959 8.55431 16.4739 8.55431C14.6389 8.55431 13.4089 9.56131 12.9059 10.5143H12.8549V8.85431H9.23692ZM3.09492 8.85431H6.86992V20.9933H3.09492V8.85431Z" fill="#0D0D12"/>
</svg>
